<svg width="40" height="40" viewBox="0 0 40 40" fill="none" xmlns="http://www.w3.org/2000/svg">
<mask id="mask0_158_578" style="mask-type:luminance" maskUnits="userSpaceOnUse" x="7" y="5" width="26" height="29">
<path d="M8 5.75443H7.9V5.85443V33.35V33.45H8H32.0002H32.1002V33.35V5.85443V5.75443H32.0002H8Z" fill="white" stroke="#A36D6A" stroke-width="0.2"/>
</mask>
<g mask="url(#mask0_158_578)">
<path d="M31.1 12.2043V12.1043H31H25.5274C25.1112 9.16904 22.8017 6.90031 20 6.90031C17.1993 6.90031 14.8898 9.16905 14.4736 12.1043H9H8.9V12.2043V27.3283C8.9 30.0713 11.1276 32.3043 13.865 32.3043H26.135C28.8735 32.3043 31.1 30.0713 31.1 27.3283V12.2043ZM10.649 13.8563H14.4V16.2103C14.4 16.6922 14.7568 17.1003 15.217 17.1003C15.677 17.1003 16.035 16.6924 16.035 16.2103V13.8563H23.966V16.2103C23.966 16.6922 24.3228 17.1003 24.783 17.1003C25.2432 17.1003 25.6 16.6922 25.6 16.2103V13.8563H29.351V27.3283C29.351 29.1053 27.9085 30.5523 26.135 30.5523H13.865C12.0925 30.5523 10.649 29.1053 10.649 27.3283V13.8563ZM20 8.67931C21.8844 8.67931 23.4717 10.1409 23.8665 12.1043H16.1336C16.5293 10.1409 18.1166 8.67931 20 8.67931Z" fill="#A36D6A" stroke="#A36D6A" stroke-width="0.2"/>
</g>
</svg>
