<svg width="30" height="30" viewBox="0 0 30 30" fill="none" xmlns="http://www.w3.org/2000/svg">
<mask id="mask0_299_385" style="mask-type:luminance" maskUnits="userSpaceOnUse" x="6" y="5" width="18" height="20">
<path d="M6.75 5.25024H23.2498V24.1531H6.75V5.25024Z" fill="white"/>
</mask>
<g mask="url(#mask0_299_385)">
<path fill-rule="evenodd" clip-rule="evenodd" d="M7.91175 10.3172H10.875V12.1577C10.875 12.4847 11.1157 12.7502 11.4127 12.7502C11.7097 12.7502 11.9512 12.4847 11.9512 12.1577V10.3172H18.0495V12.1577C18.0495 12.4847 18.2902 12.7502 18.5872 12.7502C18.8842 12.7502 19.125 12.4847 19.125 12.1577V10.3172H22.0882V20.4962C22.0882 21.8702 20.973 22.9892 19.6012 22.9892H10.3987C9.02775 22.9892 7.91175 21.8702 7.91175 20.4962V10.3172ZM15 6.43449C16.4835 6.43449 17.7195 7.60674 17.9902 9.15324H12.0097C12.2812 7.60674 13.5172 6.43449 15 6.43449ZM10.3987 24.1532H19.6012C21.6135 24.1532 23.25 22.5122 23.25 20.4962V9.15324H19.08C18.7972 6.95124 17.0782 5.25024 15 5.25024C12.9225 5.25024 11.2035 6.95124 10.9207 9.15324H6.75V20.4962C6.75 22.5122 8.38725 24.1532 10.3987 24.1532Z" fill="#A36D6A"/>
</g>
<path d="M7 10H23V20C23 22.2091 21.2091 24 19 24H11C8.79086 24 7 22.2091 7 20V10Z" fill="#A36D6A"/>
</svg>
