<svg width="40" height="40" viewBox="0 0 40 40" fill="none" xmlns="http://www.w3.org/2000/svg">
<path d="M30.2 10.6H9.8C9.53003 10.6 9.30448 10.6812 9.14523 10.826C8.98542 10.9713 8.9 11.1739 8.9 11.4C8.9 11.8469 9.23676 12.3 9.8 12.3H30.2C30.6469 12.3 31.1 11.9632 31.1 11.4C31.1 11.1739 31.0146 10.9713 30.8548 10.826C30.6955 10.6812 30.47 10.6 30.2 10.6Z" fill="#A36D6A" stroke="#A36D6A" stroke-width="0.2"/>
<path d="M30.2 18.7H9.8C9.35314 18.7 8.9 19.0368 8.9 19.6C8.9 20.0469 9.23676 20.5 9.8 20.5H30.2C30.6469 20.5 31.1 20.1632 31.1 19.6C31.1 19.1531 30.7632 18.7 30.2 18.7Z" fill="#A36D6A" stroke="#A36D6A" stroke-width="0.2"/>
<path d="M30.2 26.9H9.8C9.23676 26.9 8.9 27.3531 8.9 27.8C8.9 28.2469 9.23676 28.7 9.8 28.7H30.2C30.6469 28.7 31.1 28.3632 31.1 27.8C31.1 27.3531 30.7632 26.9 30.2 26.9Z" fill="#A36D6A" stroke="#A36D6A" stroke-width="0.2"/>
</svg>
