<svg width="30" height="30" viewBox="0 0 30 30" fill="none" xmlns="http://www.w3.org/2000/svg">
<mask id="mask0_230_837" style="mask-type:alpha" maskUnits="userSpaceOnUse" x="0" y="0" width="40" height="40">
<rect width="40" height="40" fill="#D9D9D9"/>
</mask>
<g mask="url(#mask0_230_837)">
<path d="M15 23.25L14.1791 22.5122C12.4111 20.9051 10.9486 19.5295 9.7916 18.3853C8.63479 17.2409 7.72162 16.2318 7.05212 15.3578C6.38262 14.4838 5.9149 13.693 5.64894 12.9854C5.38298 12.278 5.25 11.5663 5.25 10.8504C5.25 9.47955 5.71809 8.32847 6.65427 7.39719C7.59027 6.46573 8.74718 6 10.125 6C11.0778 6 11.9715 6.24252 12.8063 6.72756C13.641 7.21261 14.3722 7.91807 15 8.84397C15.6278 7.91807 16.359 7.21261 17.1938 6.72756C18.0285 6.24252 18.9222 6 19.875 6C21.2528 6 22.4097 6.46573 23.3457 7.39719C24.2819 8.32847 24.75 9.47955 24.75 10.8504C24.75 11.5663 24.617 12.278 24.3511 12.9854C24.0851 13.693 23.6174 14.4838 22.9479 15.3578C22.2784 16.2318 21.3686 17.2409 20.2187 18.3853C19.0687 19.5295 17.6028 20.9051 15.8209 22.5122L15 23.25ZM15 21.7908C16.7333 20.232 18.1597 18.8968 19.2792 17.7852C20.3986 16.6734 21.2833 15.7088 21.9333 14.8914C22.5833 14.074 23.0347 13.3499 23.2875 12.7192C23.5403 12.0883 23.6667 11.4654 23.6667 10.8504C23.6667 9.77255 23.3056 8.87433 22.5833 8.15574C21.8611 7.43716 20.9583 7.07787 19.875 7.07787C19.0125 7.07787 18.2167 7.32282 17.4876 7.81271C16.7583 8.30261 16.1055 9.04014 15.5292 10.0253H14.4708C13.8806 9.02631 13.2243 8.28527 12.5021 7.8022C11.7799 7.31932 10.9875 7.07787 10.125 7.07787C9.05557 7.07787 8.15622 7.43716 7.42696 8.15574C6.69788 8.87433 6.33333 9.77255 6.33333 10.8504C6.33333 11.4654 6.45972 12.0883 6.7125 12.7192C6.96528 13.3499 7.41667 14.074 8.06667 14.8914C8.71667 15.7088 9.60139 16.6699 10.7208 17.7747C11.8403 18.8795 13.2667 20.2182 15 21.7908Z" fill="#A36D6A"/>
</g>
</svg>
