<svg width="134" height="40" viewBox="0 0 134 40" fill="none" xmlns="http://www.w3.org/2000/svg">
<g clip-path="url(#clip0_158_561)">
<path d="M33.3867 16.2851L33.5459 17.3544L36.1586 18.3165C36.2278 20.2301 36.2624 22.3203 36.2624 24.6007V32.989C36.2624 34.0479 36.2624 34.8888 36.2382 35.5394V39.3079C37.5116 39.3079 38.7678 39.2698 40.0447 39.2698C41.249 39.2698 42.4671 39.2941 43.6748 39.3044V23.4276V22.1472C43.6748 19.4388 43.7267 16.885 43.8305 14.4857L43.5433 14.278C40.3147 14.9736 37.6777 15.6449 33.3867 16.2851Z" fill="#A36D6A"/>
<path d="M100.417 36.4807C97.4313 36.4807 95.1336 35.6732 93.5233 34.0583C91.913 32.4434 91.1055 29.9461 91.1009 26.5663C91.1009 23.6664 91.7376 21.3513 93.0111 19.6211C94.2846 17.8908 95.9156 17.0257 97.9043 17.0257C98.5502 17.0038 99.1951 17.0928 99.811 17.2887L101.825 23.8014L103.265 23.5695C103.738 20.8726 104.288 18.3015 104.915 15.856C102.499 14.8686 99.9126 14.3631 97.3021 14.368C93.1495 14.368 89.7352 15.6104 87.059 18.095C84.3829 20.5796 83.0472 23.8337 83.0518 27.8571C83.0518 31.5483 84.2814 34.492 86.7407 36.6883C89.1999 38.8846 92.3398 39.9885 96.1602 40C99.3151 39.9819 102.41 39.1371 105.137 37.55L104.926 35.9858C103.444 36.3059 101.933 36.4717 100.417 36.4807Z" fill="#A36D6A"/>
<path d="M39.2628 9.50255C40.1427 9.50734 41.0041 9.25083 41.738 8.76552C42.4718 8.28021 43.0451 7.58795 43.3851 6.77648C43.7252 5.96501 43.8166 5.07086 43.6479 4.20736C43.4792 3.34385 43.058 2.54987 42.4375 1.92604C41.8171 1.30221 41.0254 0.876614 40.1629 0.703196C39.3003 0.529778 38.4057 0.616344 37.5923 0.951923C36.779 1.2875 36.0836 1.85698 35.5943 2.5882C35.105 3.31941 34.8438 4.17943 34.8438 5.05926C34.8415 5.64136 34.9541 6.21819 35.1751 6.75672C35.396 7.29526 35.7211 7.78491 36.1315 8.19764C36.542 8.61038 37.0299 8.93809 37.5672 9.162C38.1045 9.38592 38.6807 9.50164 39.2628 9.50255Z" fill="#A36D6A"/>
<path d="M133.195 25.016C133.195 21.6962 132.241 19.0951 130.333 17.2126C128.425 15.33 125.717 14.3865 122.208 14.3819C118.198 14.3819 114.897 15.6115 112.304 18.0708C109.711 20.53 108.416 23.7045 108.421 27.5941C108.421 31.6752 109.768 34.7631 112.463 36.8579C115.157 38.9526 118.633 39.9989 122.889 39.9965C126.436 40.0038 129.933 39.165 133.091 37.55L132.883 35.9097C131.089 36.2437 129.268 36.4082 127.443 36.4011C123.521 36.4011 120.699 35.6375 118.975 34.1102C117.245 32.5772 116.401 30.0718 116.401 26.5767H133.119C133.167 26.0403 133.195 25.5212 133.195 25.016ZM125.236 24.0505H116.505C116.586 22.2436 117.111 20.4846 118.034 18.929C118.915 17.5125 120.097 16.8054 121.578 16.8077C122.137 16.779 122.693 16.9078 123.182 17.1794C123.671 17.451 124.075 17.8546 124.346 18.3441C124.946 19.3708 125.246 21.0641 125.246 23.4242L125.236 24.0505Z" fill="#A36D6A"/>
<path d="M27.3069 31.4906V22.3307C27.3069 19.7929 26.5848 17.832 25.1406 16.4478C23.6964 15.0636 21.6974 14.3715 19.1435 14.3715C16.2678 14.3715 13.3576 16.8734 10.4057 18.6279V7.86573C10.4057 5.15962 10.4588 2.60692 10.5649 0.20763L10.2777 0C7.03521 0.692101 4.36024 1.3842 0 2.00363L0.155723 3.07293L2.87222 4.11108C2.94143 6.02128 2.97604 8.11374 2.97604 10.3884V33.1966C2.97604 34.0549 2.97604 34.9477 2.97604 35.8647V39.2871C4.23566 39.2733 5.50451 39.2664 6.78259 39.2664C8.06068 39.2664 9.27877 39.2733 10.4369 39.2871V33.8092C10.4369 32.7364 10.4196 31.6152 10.4196 30.4386V21.1714C11.5166 20.1575 13.4337 17.9946 14.8802 17.9946C16.5389 17.9946 17.787 18.456 18.6245 19.3788C19.4619 20.3016 19.8795 21.8346 19.8772 23.9779V34.8923C19.8772 35.3179 19.8772 35.6709 19.8772 35.9478V39.2941C21.0987 39.2941 22.3895 39.2698 23.7564 39.2698C24.9503 39.2698 26.1303 39.2975 27.3172 39.3079V33.0202C27.3069 32.5288 27.3069 32.027 27.3069 31.4906Z" fill="#A36D6A"/>
<path d="M77.3696 31.4906V22.3307C77.3696 19.793 76.6463 17.832 75.1999 16.4478C73.7534 15.0636 71.7555 14.3715 69.2063 14.3715C66.3271 14.3715 63.4168 16.9669 60.4685 18.9117V14.5134L60.0774 14.3057C56.745 15.0359 54.1946 15.6899 50.1631 16.2852L50.3223 17.3544L52.9453 18.3199C53.0168 20.2486 53.0526 22.3503 53.0526 24.625V33.1966C53.0526 34.221 53.0434 35.2891 53.0249 36.4011C53.0242 36.4103 53.0242 36.4195 53.0249 36.4288V39.2871C54.2915 39.2733 55.5603 39.2664 56.8315 39.2664C58.0946 39.2664 59.3057 39.2664 60.4719 39.2871V31.982C60.4719 31.4768 60.4719 30.9646 60.4719 30.4386V21.6766C61.3647 20.5623 63.4964 17.9946 64.9395 17.9946C66.6005 17.9946 67.8486 18.456 68.6837 19.3788C69.445 20.2197 69.8395 21.5901 69.9087 23.4311V36.2973V39.2941C71.1372 39.2941 72.428 39.2698 73.7949 39.2698C74.9991 39.2698 76.1826 39.2975 77.3765 39.3079V34.8923C77.3765 33.9718 77.3696 32.8506 77.3696 31.4906Z" fill="#A36D6A"/>
</g>
<defs>
<clipPath id="clip0_158_561">
<rect width="133.195" height="40" fill="white"/>
</clipPath>
</defs>
</svg>
