<svg width="40" height="40" viewBox="0 0 40 40" fill="none" xmlns="http://www.w3.org/2000/svg">
<path d="M19.9991 10.5683C22.2378 10.5683 24.0591 12.3905 24.0591 14.6283C24.0591 16.8671 22.2378 18.6893 19.9991 18.6893C17.7604 18.6893 15.9391 16.8671 15.9391 14.6283C15.9391 12.3905 17.7603 10.5683 19.9991 10.5683ZM19.9991 20.3573C23.1583 20.3573 25.7271 17.7875 25.7271 14.6283C25.7271 11.4701 23.1583 8.90031 19.9991 8.90031C16.8399 8.90031 14.2711 11.4701 14.2711 14.6283C14.2711 17.7875 16.8398 20.3573 19.9991 20.3573Z" fill="#A36D6A" stroke="#A36D6A" stroke-width="0.2"/>
<mask id="mask0_158_585" style="mask-type:luminance" maskUnits="userSpaceOnUse" x="9" y="20" width="22" height="12">
<path d="M10.0742 20.9H9.97422V21V31.7499V31.8499H10.0742H29.924H30.024V31.7499V21V20.9H29.924H10.0742Z" fill="white" stroke="#A36D6A" stroke-width="0.2"/>
</mask>
<g mask="url(#mask0_158_585)">
<path d="M11.746 31.349C12.2142 31.349 12.594 30.9703 12.594 30.501V27.888C12.594 25.2421 14.6533 23.097 17.176 23.097H22.821C25.3437 23.097 27.403 25.2421 27.403 27.888V30.501C27.403 30.9703 27.7829 31.349 28.251 31.349C28.7194 31.349 29.098 30.9701 29.098 30.501V27.888C29.098 24.314 26.2854 21.401 22.821 21.401H17.176C13.7117 21.401 10.898 24.3139 10.898 27.888V30.501C10.898 30.9703 11.2779 31.349 11.746 31.349Z" fill="#A36D6A" stroke="#A36D6A" stroke-width="0.2"/>
</g>
</svg>
