<svg width="40" height="40" viewBox="0 0 40 40" fill="none" xmlns="http://www.w3.org/2000/svg">
<path fill-rule="evenodd" clip-rule="evenodd" d="M18.5008 10.657C22.2733 10.657 25.3438 13.7275 25.3438 17.5C25.3438 21.2735 22.2733 24.343 18.5008 24.343C14.7282 24.343 11.6578 21.2735 11.6578 17.5C11.6578 13.7275 14.7282 10.657 18.5008 10.657ZM18.5008 26.2C23.2982 26.2 27.2008 22.2975 27.2008 17.5C27.2008 12.7025 23.2982 8.8 18.5008 8.8C13.7033 8.8 9.80078 12.7025 9.80078 17.5C9.80078 22.2975 13.7033 26.2 18.5008 26.2ZM18.5008 10.457C18.5005 10.457 18.5003 10.457 18.5 10.457C14.617 10.457 11.457 13.617 11.457 17.5C11.457 21.3746 14.6018 24.5278 18.472 24.5429C14.6022 24.5274 11.4578 21.3744 11.4578 17.5C11.4578 13.617 14.6178 10.457 18.5008 10.457ZM18.5008 26C23.1878 26 27.0008 22.187 27.0008 17.5C27.0008 12.8243 23.2062 9.01841 18.5347 9.00007C23.2058 9.01884 27 12.8246 27 17.5C27 22.187 23.187 26 18.5 26C18.4841 26 18.4682 26 18.4524 25.9999C18.4685 26 18.4846 26 18.5008 26Z" fill="#A36D6A"/>
<mask id="mask0_158_569" style="mask-type:luminance" maskUnits="userSpaceOnUse" x="22" y="21" width="11" height="11">
<path d="M23 22H32V31H23V22Z" fill="white"/>
<path fill-rule="evenodd" clip-rule="evenodd" d="M22.8008 21.8H32.2008V31.2H22.8008V21.8ZM23.0008 22V31H32.0008V22H23.0008Z" fill="#A36D6A"/>
</mask>
<g mask="url(#mask0_158_569)">
<path fill-rule="evenodd" clip-rule="evenodd" d="M30.9051 29.9034C31.2993 29.5092 31.2993 28.8704 30.9051 28.4761L25.5237 23.0957C25.1295 22.7014 24.4907 22.7014 24.0965 23.0957C23.7022 23.49 23.7022 24.1287 24.0965 24.523L29.4767 29.9034C29.6741 30.1008 29.9319 30.2 30.1909 30.2C30.4485 30.2 30.7076 30.1009 30.9051 29.9034ZM30.7637 29.762C31.0798 29.4459 31.0798 28.9337 30.7637 28.6176L25.3823 23.2371C25.2247 23.0796 25.0185 23.0005 24.8121 23C25.0183 23.0007 25.2242 23.0798 25.3815 23.2371L30.7629 28.6176C31.079 28.9337 31.079 29.4459 30.7629 29.762C30.6042 29.9207 30.3966 30 30.1901 30C30.1894 30 30.1887 30 30.1881 30C30.189 30 30.1899 30 30.1909 30C30.3974 30 30.605 29.9207 30.7637 29.762Z" fill="#A36D6A"/>
</g>
</svg>
