<svg width="25" height="24" viewBox="0 0 25 24" fill="none" xmlns="http://www.w3.org/2000/svg">
<mask id="mask0_66_1844" style="mask-type:alpha" maskUnits="userSpaceOnUse" x="0" y="0" width="25" height="24">
<rect x="0.5" width="24" height="24" fill="#D9D9D9"/>
</mask>
<g mask="url(#mask0_66_1844)">
<path d="M12.5003 16.6538C12.7129 16.6538 12.891 16.5818 13.0345 16.438C13.1782 16.2943 13.25 16.1162 13.25 15.9035C13.25 15.6908 13.1781 15.5128 13.0343 15.3693C12.8904 15.2256 12.7122 15.1538 12.4998 15.1538C12.2871 15.1538 12.109 15.2257 11.9655 15.3695C11.8218 15.5133 11.75 15.6916 11.75 15.9043C11.75 16.1167 11.8219 16.2948 11.9658 16.4385C12.1096 16.582 12.2878 16.6538 12.5003 16.6538ZM12.5003 12.75C12.7129 12.75 12.891 12.6781 13.0345 12.5343C13.1782 12.3904 13.25 12.2122 13.25 11.9997C13.25 11.7871 13.1781 11.609 13.0343 11.4655C12.8904 11.3218 12.7122 11.25 12.4998 11.25C12.2871 11.25 12.109 11.3219 11.9655 11.4658C11.8218 11.6096 11.75 11.7878 11.75 12.0003C11.75 12.2129 11.8219 12.391 11.9658 12.5345C12.1096 12.6782 12.2878 12.75 12.5003 12.75ZM12.5003 8.84625C12.7129 8.84625 12.891 8.77433 13.0345 8.6305C13.1782 8.48667 13.25 8.30842 13.25 8.09575C13.25 7.88325 13.1781 7.70517 13.0343 7.5615C12.8904 7.418 12.7122 7.34625 12.4998 7.34625C12.2871 7.34625 12.109 7.41817 11.9655 7.562C11.8218 7.70567 11.75 7.88383 11.75 8.0965C11.75 8.30917 11.8219 8.48725 11.9658 8.63075C12.1096 8.77442 12.2878 8.84625 12.5003 8.84625ZM20.1923 19.5H4.80775C4.31058 19.5 3.885 19.323 3.531 18.969C3.177 18.615 3 18.1894 3 17.6923V14.404C3.56933 14.295 4.045 14.0157 4.427 13.5662C4.809 13.1169 5 12.5948 5 12C5 11.4052 4.809 10.8831 4.427 10.4337C4.045 9.98425 3.56933 9.705 3 9.596V6.30775C3 5.81058 3.177 5.385 3.531 5.031C3.885 4.677 4.31058 4.5 4.80775 4.5H20.1923C20.6894 4.5 21.115 4.677 21.469 5.031C21.823 5.385 22 5.81058 22 6.30775V9.596C21.4307 9.705 20.955 9.98425 20.573 10.4337C20.191 10.8831 20 11.4052 20 12C20 12.5948 20.191 13.1169 20.573 13.5662C20.955 14.0157 21.4307 14.295 22 14.404V17.6923C22 18.1894 21.823 18.615 21.469 18.969C21.115 19.323 20.6894 19.5 20.1923 19.5ZM20.1923 18C20.2821 18 20.3558 17.9712 20.4135 17.9135C20.4712 17.8558 20.5 17.7821 20.5 17.6923V15.45C19.8833 15.0833 19.3958 14.5958 19.0375 13.9875C18.6792 13.3792 18.5 12.7167 18.5 12C18.5 11.2833 18.6792 10.6208 19.0375 10.0125C19.3958 9.40417 19.8833 8.91667 20.5 8.55V6.30775C20.5 6.21792 20.4712 6.14417 20.4135 6.0865C20.3558 6.02883 20.2821 6 20.1923 6H4.80775C4.71792 6 4.64417 6.02883 4.5865 6.0865C4.52883 6.14417 4.5 6.21792 4.5 6.30775V8.55C5.11667 8.91667 5.60417 9.40417 5.9625 10.0125C6.32083 10.6208 6.5 11.2833 6.5 12C6.5 12.7167 6.32083 13.3792 5.9625 13.9875C5.60417 14.5958 5.11667 15.0833 4.5 15.45V17.6923C4.5 17.7821 4.52883 17.8558 4.5865 17.9135C4.64417 17.9712 4.71792 18 4.80775 18H20.1923Z" fill="white"/>
</g>
</svg>
